Coordinates
version=1
nRows=21
nColumns=12
inDegrees=yes

Units are S.I. units (second, meters, Newtons, ...)
Angles are in degrees

endheader
time	SC_y	SC_z	SC_x	AC_y	AC_z	AC_x	GH_y	GH_z	GH_yy	EL_x	PS_y
       0.0              -31.61          26.62          43.65          44.39         -19.03         0.7025          -47.9          8.101          104.1          134.7          145.2
   0.03799              -31.61          26.61          43.65          44.39         -19.02         0.7044         -47.89          8.111          104.1          134.7          145.2
   0.07598              -31.61          26.61          43.66           44.4         -19.02         0.7063         -47.88          8.123          104.1          134.6          145.2
     0.114              -31.61           26.6          43.66           44.4         -19.02         0.7084         -47.86          8.135          104.1          134.6          145.2
     0.152              -31.61           26.6          43.67           44.4         -19.02         0.7107         -47.85          8.148          104.1          134.6          145.2
    0.1899              -31.61          26.59          43.67          44.41         -19.02         0.7131         -47.84          8.162          104.1          134.6          145.2
    0.2279               -31.6          26.59          43.68          44.41         -19.02         0.7156         -47.83          8.177          104.1          134.6          145.2
    0.2659               -31.6          26.58          43.68          44.42         -19.02         0.7184         -47.81          8.193          104.1          134.5          145.2
    0.3039               -31.6          26.57          43.69          44.42         -19.02         0.7213          -47.8           8.21          104.1          134.5          145.2
    0.3419               -31.6          26.57           43.7          44.42         -19.02         0.7244         -47.78          8.228          104.1          134.5          145.2
    0.3799               -31.6          26.56           43.7          44.43         -19.01         0.7278         -47.77          8.247          104.1          134.4          145.2
    0.4179               -31.6          26.55          43.71          44.44         -19.01         0.7314         -47.75          8.268          104.2          134.4          145.2
    0.4559              -31.59          26.54          43.72          44.44         -19.01         0.7353         -47.73          8.291          104.2          134.4          145.2
    0.4939              -31.59          26.53          43.73          44.45         -19.01         0.7396          -47.7          8.315          104.2          134.3          145.2
    0.5318              -31.59          26.52          43.74          44.45         -19.01         0.7441         -47.68          8.342          104.2          134.3          145.2
    0.5698              -31.59          26.51          43.75          44.46          -19.0         0.7491         -47.66          8.371          104.2          134.2          145.2
    0.6078              -31.58           26.5          43.77          44.47          -19.0         0.7545         -47.63          8.402          104.2          134.2          145.2
    0.6458              -31.58          26.49          43.78          44.48          -19.0         0.7604          -47.6          8.436          104.2          134.1          145.2
    0.6838              -31.58          26.47          43.79          44.49          -19.0         0.7668         -47.56          8.473          104.2          134.1          145.2
    0.7218              -31.57          26.45          43.81           44.5         -18.99         0.7738         -47.53          8.514          104.2          134.0          145.2
    0.7598              -31.57          26.44          43.83          44.51         -18.99         0.7815         -47.49          8.558          104.2          133.9          145.2
